<svg width="48" height="48" viewBox="0 0 48 48" fill="none" xmlns="http://www.w3.org/2000/svg">
  <path fill-rule="evenodd" clip-rule="evenodd" d="M21.5 8C14.044 8 8 14.044 8 21.5S14.044 35 21.5 35C24.438 35 27.157 34.061 29.374 32.466L38.086 41.177C38.867 41.958 40.133 41.958 40.914 41.177C41.695 40.396 41.695 39.13 40.914 38.349L32.35 29.785C34.014 27.532 35 24.745 35 21.5C35 14.044 28.956 8 21.5 8ZM12 21.5C12 16.253 16.253 12 21.5 12S31 16.253 31 21.5S26.747 31 21.5 31S12 26.747 12 21.5Z" fill="currentColor"/>
</svg>
