<svg xmlns="http://www.w3.org/2000/svg" viewBox="0 0 24 24" fill="currentColor"><path d="M9.5 5C5.9 5 3 7.3 3 10.1c0 1.6.9 3 2.4 3.9l-.5 2 2.2-1.2c.7.2 1.5.4 2.4.4h.5a5.3 5.3 0 0 1-.2-1.4c0-2.8 2.7-5 6.1-5h.4C15.5 6.6 12.8 5 9.5 5Zm-2 3.4a.9.9 0 1 1 0 1.8.9.9 0 0 1 0-1.8Zm4 0a.9.9 0 1 1 0 1.8.9.9 0 0 1 0-1.8Zm4.6 1.8c-2.8 0-5.1 1.8-5.1 4s2.3 4 5.1 4c.6 0 1.2-.1 1.8-.3l1.8 1-.4-1.6c1.1-.7 1.8-1.8 1.8-3.1 0-2.2-2.2-4-5-4Zm-1.7 2.7a.7.7 0 1 1 0 1.4.7.7 0 0 1 0-1.4Zm3.4 0a.7.7 0 1 1 0 1.4.7.7 0 0 1 0-1.4Z"/></svg>
