<svg width="160" height="112" viewBox="0 0 160 112" fill="none" xmlns="http://www.w3.org/2000/svg">
  <path d="M30 91C20.6 91 13 83.4 13 74V38C13 28.6 20.6 21 30 21H129C141.7 21 152 31.3 152 44V74C152 83.4 144.4 91 135 91H30Z" fill="url(#paint0_linear)"/>
  <path d="M37 21L111.5 5.6C123.2 3.2 134 12.1 134 24V32H37V21Z" fill="url(#paint1_linear)"/>
  <path d="M95 44H152V72H95C87.3 72 81 65.7 81 58C81 50.3 87.3 44 95 44Z" fill="url(#paint2_linear)"/>
  <circle cx="99" cy="58" r="9" fill="white" opacity="0.9"/>
  <path d="M13 42H81" stroke="#B7DDFE" stroke-width="2" stroke-linecap="round" opacity="0.55"/>
  <path d="M27 96C30 91 34 88.5 39 88.5C44 88.5 48 91 51 96" stroke="#83D4E4" stroke-width="5" stroke-linecap="round"/>
  <path d="M131 96C134 91 138 88.5 143 88.5C148 88.5 152 91 155 96" stroke="#83D4E4" stroke-width="5" stroke-linecap="round"/>
  <circle cx="142" cy="24" r="5" fill="#A7E3EF" opacity="0.65"/>
  <circle cx="128" cy="13" r="3.5" fill="#A7E3EF" opacity="0.55"/>
  <defs>
    <linearGradient id="paint0_linear" x1="13" y1="21" x2="152" y2="91" gradientUnits="userSpaceOnUse">
      <stop stop-color="#F3FAFF"/>
      <stop offset="1" stop-color="#C7E7FF"/>
    </linearGradient>
    <linearGradient id="paint1_linear" x1="37" y1="5" x2="134" y2="32" gradientUnits="userSpaceOnUse">
      <stop stop-color="#E5F5FF"/>
      <stop offset="1" stop-color="#87C6FF"/>
    </linearGradient>
    <linearGradient id="paint2_linear" x1="81" y1="44" x2="152" y2="72" gradientUnits="userSpaceOnUse">
      <stop stop-color="#DDF1FF"/>
      <stop offset="1" stop-color="#76B7F7"/>
    </linearGradient>
  </defs>
</svg>
